<svg display="none" xmlns="http://www.w3.org/2000/svg">
<symbol viewBox="0 0 260 260" id="insta">
<path d="M164.58,64H95.42C78.1,64,64,78.1,64,95.42v69.16C64,181.9,78.1,196,95.42,196h69.16c17.32,0,31.42-14.1,31.42-31.42V95.42
	C196,78.1,181.9,64,164.58,64z M130,171.1c-22.66,0-41.1-18.44-41.1-41.1s18.44-41.1,41.1-41.1s41.1,18.44,41.1,41.1
	S152.66,171.1,130,171.1z M172.22,97.3c-5.3,0-9.6-4.3-9.6-9.61c0-5.3,4.3-9.6,9.6-9.6c5.31,0,9.61,4.3,9.61,9.6
	C181.83,93,177.53,97.3,172.22,97.3z M130,102.9c-14.94,0-27.1,12.16-27.1,27.1s12.16,27.1,27.1,27.1s27.1-12.16,27.1-27.1
	S144.94,102.9,130,102.9z M130,2C59.31,2,2,59.31,2,130s57.31,128,128,128s128-57.31,128-128S200.69,2,130,2z M210,164.58
	c0,25.04-20.38,45.42-45.42,45.42H95.42C70.38,210,50,189.62,50,164.58V95.42C50,70.38,70.38,50,95.42,50h69.16
	C189.62,50,210,70.38,210,95.42V164.58z"/>     
</symbol>
<symbol viewBox="0 0 260 260" id="twitter">
<path d="M130,2C59.31,2,2,59.31,2,130s57.31,128,128,128s128-57.31,128-128S200.69,2,130,2z M194.08,97.09l0.11,4.28
	c0,50.62-33.26,94.13-94.12,94.13c-18.69,0-36.07-5.48-50.71-14.89c2.59,0.3,5.22,0.46,7.89,0.46c15.5,0,29.77-5.27,41.08-14.14
	c-14.47-0.26-26.43-9.08-30.64-22.23c5.11,0.82,11.26,0.12,14.69-1.29c-7.56-1.53-14.19-5.63-18.94-11.36
	c-4.74-5.72-7.59-13.07-7.59-21.08c4.46,2.48,9.56,3.55,14.98,3.74c-8.87-5.93-14.71-16.06-14.71-27.54
	c0-6.06,1.62-11.75,4.47-16.62c16.32,20.01,40.7,33.18,68.19,34.56c-0.57-2.42-0.86-4.95-0.86-7.54c0-18.26,14.82-33.07,33.09-33.07
	c9.52,0,17.54,3.99,23.11,9.42c6.25-0.21,14.88-3.21,22.05-7c-2.47,7.71-7.71,14.2-14.54,18.29c6.69-0.26,12.43-1.65,18.36-4.28
	C205.57,87.56,200.58,92.46,194.08,97.09z"/>   
</symbol>
<symbol viewBox="0 0 260 260" id="fb">
<path d="M130,2C59.308,2,2,59.308,2,130s57.308,128,128,128s128-57.308,128-128S200.692,2,130,2z M179,71h-24
	c-6.627,0-12,5.373-12,12v24h36l-4,32h-32v80h-32v-80H82v-32h29V82.352c0-23.519,19.798-42.188,43.277-40.806L179,43V71z"/>    
</symbol>
<symbol viewBox="-202 3.9 554.1 554.1" id="network">
<path d="M254.6,99.3C205.5,50.1,140.1,23.1,70.5,23.1C1,23.1-64.4,50.1-113.6,99.3s-76.3,114.6-76.3,184.1
	c0,69.5,27.1,134.9,76.3,184.1C-64.4,516.7,1,543.8,70.5,543.8c69.5,0,134.9-27.1,184.1-76.3s76.3-114.6,76.3-184.1
	C330.9,213.9,303.8,148.5,254.6,99.3z M295.4,280.7c-11.9-29.5-27.7-57-47-81.7c11.8,3.1,23.4,6.9,34.6,11.3
	C290.9,232.9,295.1,256.7,295.4,280.7z M273.3,186.4c-14.7-4.9-29.8-8.8-45.3-11.4c-24.4-26-52.7-48.1-84.1-65.4
	c10.2-9,21-17.2,32.3-24.7C218.6,107.5,252.6,143.1,273.3,186.4z M197.2,171.3c-7.2-0.5-14.4-0.8-21.6-0.8c-2.5,0-5,0-7.5,0.1
	c-4.6-9.1-13.9-14.8-24.1-14.8c-12.2,0-22.9,8.3-26,20.1c-11.9,2.3-23.6,5.2-35.1,8.8c12.7-22.5,28.3-43.1,46.3-61.4
	C154,136.4,176.8,152.5,197.2,171.3z M9.2,67c19.9-5.7,40.6-8.5,61.3-8.6c29.4,0,58.5,5.8,85.7,17.1c-10.7,7.6-20.9,15.9-30.5,24.8
	C89.5,83.1,49.8,72.1,7.9,68.7C8.3,68.1,8.8,67.6,9.2,67z M111.2,114.6L111.2,114.6C89,138,70.4,164.9,56.4,194.4
	c-20.9,8.7-40.6,19.7-58.8,32.6c-8.2-0.5-16.4-0.8-24.7-0.8c-9.9,0-19.8,0.4-29.7,1.1c1.8-13.4,4.4-26.5,7.8-39.3
	c16.5-0.6,29.8-14.1,29.8-30.8c0-9.4-4.2-17.8-10.8-23.4c7.2-16.3,15.7-31.9,25.2-46.7C36.4,89,75.5,98.6,111.2,114.6z M45.4,220.5
	c-1.4,3.8-2.7,7.7-4,11.6c-4.5-0.8-8.9-1.5-13.4-2.1C33.6,226.7,39.4,223.5,45.4,220.5z M-58.9,246.7c10.5-0.9,21.1-1.3,31.8-1.3
	c0.4,0,0.7,0,1.1,0c-12.2,10.5-23.6,22-34,34.2c0-1.5,0-3.1,0-4.6C-60,265.5-59.6,256.1-58.9,246.7z M-39.4,87.4
	c4.1-0.2,8.2-0.5,12.3-0.6l0,0c-7.6,12.7-14.5,26-20.6,39.7c-0.8-0.1-1.5-0.1-2.3-0.1c-17,0-30.8,13.8-30.8,30.8
	c0,10.6,5.3,19.9,13.5,25.5c-3.9,15.2-7,30.7-8.9,46.6c-25.5,3.1-50.5,8.8-74.8,16.7C-139.7,178.9-98.7,120.7-39.4,87.4z
	 M-122.5,398.6c-20.8-34.8-31.9-74.6-32-115.2c0.1-5.5,0.3-11,0.8-16.5c24.4-8.5,49.6-14.6,75.4-18.1c-0.6,8.7-0.9,17.4-0.9,26.2
	c0,9.5,0.4,18.8,1.1,28.1C-98,331.8-113.1,364-122.5,398.6z M-5.9,494.7c-40.5-14.6-76-40.6-102.2-74.8c6.5-31.1,18-60.4,33.5-86.9
	c2.2,14,5.3,27.7,9,41.1c-6.1,5.1-9.7,12.7-9.7,20.7c0,14.8,11.9,26.8,26.7,26.9C-37.1,447.8-22.8,472.3-5.9,494.7L-5.9,494.7z
	 M70.5,508.4c-14.9,0-29.7-1.5-44.3-4.4C3,477.6-16.2,447.6-30.6,415.1c5.9-5.1,9.2-12.5,9.2-20.3c0-14.5-11.6-26.4-26.1-26.9
	c-5.3-19.2-9-39.1-11-59.5c17.3-23.6,38-44.4,61.4-61.8c11.1,0.9,22.1,2.2,33,4c-6.2,24.5-9.6,50.1-9.6,76.5
	c0,41.5,8.2,81,23.1,117.1c-4.8,5-7.5,11.7-7.5,18.6c0,14.9,12.1,27,27,27c0,0,0,0,0,0c1.2,0,2.5-0.1,3.7-0.3
	c3.9,6.3,8,12.4,12.3,18.4C80.2,508.2,75.4,508.4,70.5,508.4z M107,505.4c-6.3-8-12.1-16.4-17.5-25c4.2-4.9,6.5-11.1,6.5-17.5
	c0-14.9-12.1-27-27-27c-0.7,0-1.5,0-2.2,0.1c-13.7-33.6-21.2-70.3-21.2-108.9c0-25.2,3.2-49.6,9.2-72.8c20,4.4,39.5,10.4,58.5,17.8
	c-0.2,1.3-0.3,2.7-0.3,4.1c0,17,13.8,30.8,30.8,30.8c8.7,0,16.5-3.6,22.1-9.4c28.1,16.4,54.3,36.5,77.7,59.9
	c9.4,9.4,18.1,19.2,26.4,29.4C237.4,449.9,177,493.8,107,505.4z M290.9,328.6c-2.8,13.4-6.8,26.4-11.9,39.1
	c-6.9-8.1-14.2-16-21.8-23.6c-25-25-52.9-46.3-82.9-63.6c0.2-1.4,0.3-2.8,0.3-4.2c0-17-13.8-30.8-30.8-30.8
	c-8.7,0-16.6,3.6-22.2,9.4c-19.9-7.9-40.4-14.3-61.4-19c3-9.1,6.4-17.9,10.3-26.6c15.9-6.2,32.4-11,49.5-14.3
	c4.6,9,13.9,14.7,24,14.7c12.2,0,22.8-8.2,26-20c1.9,0,3.7-0.1,5.6-0.1c14.6,0,29,1.1,43,3.2C252.8,231,278,277.3,290.9,328.6
	C290.9,328.6,290.9,328.6,290.9,328.6z"/>    
</symbol>
<symbol id="menu-btn" viewBox="0 0 24 24"> 
<path class="cls-3" d="M21,1H3A3,3,0,0,0,3,7H21a3,3,0,0,0,0-6Zm0,4H3A1,1,0,0,1,3,3H21a1,1,0,0,1,0,2Z"/><path class="cls-3" d="M21,17H3a3,3,0,0,0,0,6H21a3,3,0,0,0,0-6Zm0,4H3a1,1,0,0,1,0-2H21a1,1,0,0,1,0,2Z"/><path class="cls-3" d="M21,9H3a3,3,0,0,0,0,6H21a3,3,0,0,0,0-6Zm0,4H3a1,1,0,0,1,0-2H21a1,1,0,0,1,0,2Z"/>
</symbol>
<symbol id="close-btn" viewBox="0 0 512.001 512.001"> 
	<path style="fill:#FF6465;" d="M457.127,9.187H54.873c-25.231,0-45.686,20.455-45.686,45.686v402.254
	c0,25.233,20.455,45.686,45.686,45.686h402.254c25.231,0,45.686-20.455,45.686-45.686V54.874
	C502.814,29.641,482.359,9.187,457.127,9.187z"/>
<polygon style="fill:#FFFFFF;" points="367.788,195.507 316.493,144.213 256.001,204.706 195.507,144.213 144.212,195.507 
	204.705,256.001 144.212,316.494 195.507,367.789 256.001,307.296 316.493,367.789 367.788,316.494 307.295,256.001 "/>
<path style="opacity:0.1;enable-background:new    ;" d="M70.427,457.127V54.874c0-25.231,20.455-45.686,45.686-45.686H54.872
	c-25.231,0-45.686,20.455-45.686,45.686v402.254c0,25.231,20.455,45.686,45.686,45.686h61.241
	C90.882,502.814,70.427,482.36,70.427,457.127z"/>
<path d="M54.872,512.001h55.403c5.073,0,9.186-4.113,9.186-9.186c0-5.073-4.113-9.186-9.186-9.186H54.872
	c-20.126,0-36.5-16.373-36.5-36.5V54.874c0-20.126,16.373-36.501,36.5-36.501h308.929c5.074,0,9.186-4.113,9.186-9.186
	s-4.112-9.186-9.186-9.186H54.872C24.615,0.001,0,24.616,0,54.874v402.254C0,487.384,24.615,512.001,54.872,512.001z"/>
<path d="M400.546,18.373h56.581c20.128,0,36.501,16.375,36.501,36.5v402.254c0,20.126-16.373,36.5-36.501,36.5H147.021
	c-5.073,0-9.186,4.113-9.186,9.186s4.113,9.186,9.186,9.186h310.107c30.257,0,54.873-24.615,54.873-54.872V54.874
	c0-30.257-24.617-54.872-54.873-54.872h-56.581c-5.074,0-9.186,4.113-9.186,9.186S395.471,18.373,400.546,18.373z"/>
<path d="M309.997,137.717l-53.998,53.996l-53.998-53.996c-3.588-3.588-9.404-3.588-12.99,0l-51.294,51.294
	c-3.588,3.588-3.588,9.404,0,12.99L191.714,256l-53.998,53.998c-3.588,3.588-3.588,9.403,0,12.99l51.294,51.294
	c1.722,1.723,4.059,2.691,6.495,2.691c2.436,0,4.773-0.968,6.495-2.691l53.998-53.998l53.998,53.998
	c1.722,1.723,4.059,2.691,6.495,2.691s4.773-0.968,6.495-2.691l51.296-51.294c3.587-3.587,3.587-9.404,0-12.99L320.286,256
	l53.998-53.998c3.587-3.588,3.587-9.404,0-12.99l-51.296-51.294C319.401,134.13,313.585,134.13,309.997,137.717z M300.799,249.505
	c-1.723,1.723-2.691,4.059-2.691,6.495s0.968,4.772,2.691,6.495l53.998,53.996l-38.304,38.304l-53.998-53.998
	c-1.793-1.794-4.145-2.691-6.495-2.691c-2.35,0-4.702,0.897-6.495,2.691l-53.998,53.998l-38.304-38.304l53.998-53.996
	c1.723-1.723,2.691-4.059,2.691-6.495s-0.968-4.772-2.691-6.495l-53.998-53.998l38.304-38.304l53.998,53.998
	c3.588,3.588,9.404,3.588,12.99,0l53.998-53.998l38.304,38.304L300.799,249.505z"/>
</symbol>
<symbol id="next" viewBox="0 0 330 330">
    <path d="M165,0C74.019,0,0,74.02,0,165.001C0,255.981,74.019,330,165,330s165-74.019,165-164.999C330,74.02,255.981,0,165,0z
		 M165,300c-74.44,0-135-60.561-135-134.999C30,90.562,90.56,30,165,30s135,60.562,135,135.001C300,239.439,239.439,300,165,300z"/>
	<path d="M185.606,94.395c-5.857-5.857-15.355-5.857-21.213,0c-5.858,5.857-5.858,15.355,0,21.213l34.395,34.395l-103.79,0.006
		c-8.284,0-15,6.717-14.999,15.001c0,8.284,6.717,14.999,15.001,14.999l103.784-0.006l-34.392,34.393
		c-5.858,5.857-5.858,15.355,0,21.213c2.929,2.929,6.767,4.394,10.606,4.394c3.839,0,7.678-1.465,10.606-4.394l60-60.001
		C248.42,172.793,250,168.979,250,165s-1.581-7.794-4.394-10.606L185.606,94.395z"/>
        </symbol>

<symbol viewBox="0 0 512 512" id="bolt">
<path d="M374.467-1H331.8H178.2h-42.667c-9.387,0-17.067,7.68-17.067,17.067v51.2c0,9.387,7.68,17.067,17.067,17.067H178.2h25.6
			v128.549l-7.68-0.549c-5.12-0.853-9.387,2.56-9.387,7.68c-0.853,5.12,2.56,9.387,7.68,9.387l9.387,0.666v16.95l-7.68-0.549
			c-5.12-0.853-9.387,2.56-9.387,7.68c-0.853,5.12,2.56,9.387,7.68,9.387l9.387,0.666v16.95l-7.68-0.549
			c-5.12-0.853-9.387,2.56-9.387,7.68c-0.853,5.12,2.56,9.387,7.68,9.387l9.387,0.666v16.95l-7.68-0.549
			c-5.12-0.853-9.387,2.56-9.387,7.68c-0.853,5.12,2.56,9.387,7.68,9.387l9.387,0.666v16.95l-7.68-0.549
			c-5.12-0.853-9.387,2.56-9.387,7.68c-0.853,5.12,2.56,9.387,7.68,9.387l9.387,0.666v16.95L196.12,383
			c-5.12-0.853-9.387,2.56-9.387,7.68c-0.853,5.12,2.56,9.387,7.68,9.387l9.387,0.666v16.95l-7.68-0.549
			c-5.12-0.853-9.387,2.56-9.387,7.68c-0.853,5.12,2.56,9.387,7.68,9.387l9.387,0.666v16.95l-7.68-0.549
			c-5.12-0.853-9.387,3.413-9.387,7.68c-0.853,5.12,2.56,9.387,7.68,9.387l9.387,0.666v24.934c0,9.387,7.68,17.067,17.067,17.067
			h68.267c9.387,0,17.067-7.68,17.067-17.067v-17.672l8.533,0.605c4.267,0,8.533-3.413,8.533-7.68c0.853-5.12-2.56-9.387-7.68-9.387
			l-9.387-0.67v-17.001l8.533,0.605c4.267,0,8.533-3.413,8.533-7.68c0.853-5.12-2.56-9.387-7.68-9.387l-9.387-0.67v-17.001
			l8.533,0.605c4.267,0,8.533-3.413,8.533-7.68c0.853-5.12-2.56-9.387-7.68-9.387l-9.387-0.67v-17.001l8.533,0.605
			c4.267,0,8.533-3.413,8.533-7.68c0.853-5.12-2.56-9.387-7.68-9.387l-9.387-0.67v-17.001l8.533,0.605
			c4.267,0,8.533-3.413,8.533-7.68c0.853-5.12-2.56-9.387-7.68-9.387l-9.387-0.67v-17.001l8.533,0.605
			c4.267,0,8.533-3.413,8.533-7.68c0.853-5.12-2.56-9.387-7.68-9.387l-9.387-0.67v-17.001l8.533,0.605
			c4.267,0,8.533-3.413,8.533-7.68c0.853-5.12-2.56-9.387-7.68-9.387l-9.387-0.67v-17.001l8.533,0.605
			c4.267,0,8.533-3.413,8.533-7.68c0.853-5.12-2.56-9.387-7.68-9.387l-9.387-0.67V84.333h25.6h42.667
			c9.387,0,17.067-7.68,17.067-17.067v-51.2C391.533,6.68,383.853-1,374.467-1z M135.533,16.067h34.133v51.2h-34.133V16.067z
			 M186.733,16.067h136.533v51.2h-25.6h-85.333h-25.6V16.067z M289.133,493.933h-68.267v-23.724l68.267,4.842V493.933z
			 M289.133,457.911l-68.267-4.876v-16.958l68.267,4.842V457.911z M289.133,423.777l-68.267-4.876v-16.958l68.267,4.842V423.777z
			 M289.133,389.644l-68.267-4.876v-16.958l68.267,4.842V389.644z M289.133,355.51l-68.267-4.876v-16.958l68.267,4.842V355.51z
			 M289.133,321.377l-68.267-4.876v-16.958l68.267,4.842V321.377z M289.133,287.244l-68.267-4.876v-16.958l68.267,4.842V287.244z
			 M289.133,253.11l-68.267-4.876v-16.958l68.267,4.842V253.11z M289.133,218.977l-68.267-4.876V84.333h68.267V218.977z
			 M374.467,67.267h-34.133v-51.2h34.133V67.267z"/>    
</symbol>

<symbol viewBox="0 0 512 512" id="vint">
<path d="M378.213,10.093C375.653,3.267,369.68-1,362-1h-83.627c-3.413,0-5.973,1.707-7.68,4.267l-7.68,12.8H239.12l-5.973-12.8
			C231.44,0.707,228.88-1,225.466-1h-76.8c-6.827,0-13.653,3.413-16.213,10.24c-3.413,5.973-2.56,12.8,1.707,18.773
			c10.24,14.507,24.747,26.453,38.4,38.4c17.92,13.653,28.16,35.84,28.16,60.587v43.215l-7.68-0.549
			c-5.12-0.853-9.387,2.56-9.387,7.68c-0.853,5.12,2.56,9.387,7.68,9.387l9.387,0.666v16.95l-7.68-0.549
			c-5.12-0.853-9.387,2.56-9.387,7.68c-0.853,5.12,2.56,9.387,7.68,9.387l9.387,0.666v16.95l-7.68-0.549
			c-5.12-0.853-9.387,2.56-9.387,7.68c-0.853,5.12,2.56,9.387,7.68,9.387l9.387,0.666v16.95l-7.68-0.549
			c-5.12-0.853-9.387,2.56-9.387,7.68c-0.853,5.12,2.56,9.387,7.68,9.387l9.387,0.666v16.95l-7.68-0.549
			c-5.12-0.853-9.387,2.56-9.387,7.68c-0.853,5.12,2.56,9.387,7.68,9.387l9.387,0.666v16.95l-7.68-0.549
			c-5.12-0.853-9.387,3.413-9.387,7.68c-0.853,5.12,2.56,9.387,7.68,9.387l9.387,0.666v16.95l-7.68-0.549
			c-5.12-0.853-9.387,2.56-9.387,7.68c-0.853,5.12,2.56,9.387,7.68,9.387l9.387,0.666v16.95l-7.68-0.549
			c-5.12-0.853-9.387,2.56-9.387,7.68c-0.853,5.12,2.56,9.387,7.68,9.387l9.387,0.666v24.934c0,1.707,0.853,4.267,1.707,5.12
			l42.667,51.2c1.707,2.56,4.267,3.413,6.827,3.413s5.12-0.853,6.827-3.413l42.667-51.2c0.853-0.853,1.707-3.413,1.707-5.12v-17.672
			l8.533,0.605c4.267,0,8.533-3.413,8.533-7.68c0.853-5.12-2.56-9.387-7.68-9.387l-9.387-0.67v-17.001l8.533,0.605
			c4.267,0,8.533-3.413,8.533-7.68c0.853-5.12-2.56-9.387-7.68-9.387l-9.387-0.67v-17.001l8.533,0.605
			c4.267,0,8.533-3.413,8.533-7.68c0.853-5.12-2.56-9.387-7.68-9.387l-9.387-0.67v-17.001l8.533,0.605
			c4.267,0,8.533-3.413,8.533-7.68c0.853-5.12-2.56-9.387-7.68-9.387l-9.387-0.67v-17.001l8.533,0.605
			c4.267,0,8.533-3.413,8.533-7.68c0.853-5.12-2.56-9.387-7.68-9.387l-9.387-0.67v-17.001l8.533,0.605
			c4.267,0,8.533-3.413,8.533-7.68c0.853-5.12-2.56-9.387-7.68-9.387l-9.387-0.67v-17.001l8.533,0.605
			c4.267,0,8.533-3.413,8.533-7.68c0.853-5.12-2.56-9.387-7.68-9.387l-9.387-0.67v-17.001l8.533,0.605
			c4.267,0,8.533-3.413,8.533-7.68c0.853-5.12-2.56-9.387-7.68-9.387l-9.387-0.67V127c0-24.747,10.24-46.933,28.16-60.587
			c3.413-2.56,6.827-5.12,11.093-8.533c11.093-8.533,23.893-17.92,33.28-28.16C379.92,23.747,380.773,16.92,378.213,10.093z
			 M286.053,447.853l-34.133,40.96l-34.133-40.96v-20.311l68.267,4.842V447.853z M286.053,415.244l-68.267-4.876v-16.958
			l68.267,4.842V415.244z M286.053,381.11l-68.267-4.876v-16.958l68.267,4.842V381.11z M286.053,346.977l-68.267-4.876v-16.958
			l68.267,4.842V346.977z M286.053,312.844l-68.267-4.876v-16.958l68.267,4.842V312.844z M286.053,278.711l-68.267-4.876v-16.958
			l68.267,4.842V278.711z M286.053,244.577l-68.267-4.876v-16.958l68.267,4.842V244.577z M286.053,210.444l-68.267-4.876v-16.958
			l68.267,4.842V210.444z M362.853,17.773c-8.533,9.387-20.48,17.92-30.72,25.6c-4.267,3.413-8.533,6.827-11.947,9.387
			c-21.333,17.92-34.133,44.373-34.133,74.24v49.31l-68.267-4.876V127c0-29.867-11.947-56.32-34.133-74.24
			c-12.8-11.093-27.307-22.187-35.84-34.133c0-0.853,0-0.853,0-1.707s0.853-0.853,0.853-0.853h70.827l7.68,12.8
			c1.707,2.56,4.267,4.267,7.68,4.267h34.133c2.56,0,5.12-1.707,6.827-4.267l7.68-12.8H362c0,0,0.853,0,0.853,0.853
			S362.853,17.773,362.853,17.773z"/>
</symbol>

<symbol viewBox="0 0 512 512" id="screw">
<path d="M288.948,50.2c2.56,0,5.12-0.853,6.827-3.413l25.6-34.133c1.707-2.56,2.56-5.973,0.853-8.533
			c-1.707-3.413-4.267-5.12-7.68-5.12H195.082c-3.413,0-6.827,2.56-7.68,5.12s-0.853,5.973,0.853,8.533l25.6,34.133
			c1.707,2.56,4.267,3.413,6.827,3.413h8.533v18.56l-5.973-1.493c-5.12-0.853-9.387,1.707-11.093,6.827
			c-0.853,4.267,1.707,8.533,6.827,10.24l10.24,2.56v16.853l-5.973-1.493c-4.267-1.707-9.387,1.707-10.24,5.973
			c-1.707,4.267,1.707,9.387,5.973,10.24l10.24,2.56v16.853l-5.973-1.493c-4.267-1.707-9.387,1.707-10.24,5.973
			c-1.707,4.267,1.707,9.387,5.973,10.24l10.24,2.56v16.853l-5.973-1.493c-4.267-1.707-9.387,1.707-10.24,5.973
			c-1.707,4.267,1.707,9.387,5.973,10.24l10.24,2.56v16.853l-5.973-1.493c-4.267-1.707-9.387,1.707-10.24,5.973
			c-1.707,4.267,1.707,9.387,5.973,10.24l10.24,2.56v16.853l-5.973-1.493c-4.267-1.707-9.387,1.707-10.24,5.973
			c-1.707,4.267,1.707,9.387,5.973,10.24l10.24,2.56v16.853l-5.973-1.493c-4.267-1.707-9.387,1.707-10.24,5.973
			c-1.707,4.267,1.707,9.387,5.973,10.24l10.24,2.56v16.853l-5.973-1.493c-4.267-1.707-9.387,1.707-10.24,5.973
			c-1.707,4.267,1.707,9.387,5.973,10.24l10.24,2.56v16.853l-5.973-1.493c-4.267-1.707-9.387,1.707-10.24,5.973
			c-1.707,4.267,1.707,9.387,5.973,10.24l10.24,2.56v16.853l-5.973-1.493c-4.267-1.707-9.387,1.707-10.24,5.973
			c-1.707,4.267,1.707,9.387,5.973,10.24l10.24,2.56v3.413c0,4.516,0.093,9.018,0.274,13.508l-6.247-1.562
			c-4.267-1.707-9.387,1.707-10.24,5.973c-1.707,4.267,1.707,9.387,5.973,10.24l11.706,2.926
			c2.431,25.914,7.904,51.394,16.454,76.434c0.853,3.413,4.267,5.973,7.68,5.973s6.827-2.56,8.533-5.973
			c6.736-21.245,11.571-42.807,14.341-64.682l9.553,2.388c0,0,0.853,0,1.707,0c4.267,0,7.68-2.56,8.533-5.973
			c1.707-4.267-1.707-9.387-5.973-10.24l-12.103-3.026c0.425-5.526,0.71-11.072,0.864-16.637l6.972,1.743c0,0,0.853,0,1.707,0
			c4.267,0,7.68-2.56,8.533-5.973c1.707-4.267-1.707-9.387-5.973-10.24l-11.093-2.773V372.76l6.827,1.707c0,0,0.853,0,1.707,0
			c4.267,0,7.68-2.56,8.533-5.973c1.707-4.267-1.707-9.387-5.973-10.24l-11.093-2.773v-16.853l6.827,1.707c0,0,0.853,0,1.707,0
			c4.267,0,7.68-2.56,8.533-5.973c1.707-4.267-1.707-9.387-5.973-10.24l-11.093-2.773v-16.853l6.827,1.707c0,0,0.853,0,1.707,0
			c4.267,0,7.68-2.56,8.533-5.973c1.707-4.267-1.707-9.387-5.973-10.24l-11.093-2.773V270.36l6.827,1.707c0,0,0.853,0,1.707,0
			c4.267,0,7.68-2.56,8.533-5.973c1.707-4.267-1.707-9.387-5.973-10.24l-11.093-2.773v-16.853l6.827,1.707c0,0,0.853,0,1.707,0
			c4.267,0,7.68-2.56,8.533-5.973c1.707-4.267-1.707-9.387-5.973-10.24l-11.093-2.773v-16.853l6.827,1.707c0,0,0.853,0,1.707,0
			c4.267,0,7.68-2.56,8.533-5.973c1.707-4.267-1.707-9.387-5.973-10.24l-11.093-2.773V167.96l6.827,1.707c0,0,0.853,0,1.707,0
			c4.267,0,7.68-2.56,8.533-5.973c1.707-4.267-1.707-9.387-5.973-10.24l-11.093-2.773v-16.853l6.827,1.707c0,0,0.853,0,1.707,0
			c4.267,0,7.68-2.56,8.533-5.973c1.707-4.267-1.707-9.387-5.973-10.24l-11.093-2.773V99.693l6.827,1.707c0,0,0.853,0,1.707,0
			c4.267,0,7.68-2.56,8.533-6.827c1.707-4.267-1.707-9.387-5.973-10.24l-11.093-2.773V50.2H288.948z M212.148,16.067h85.333
			l-12.8,17.067h-12.8h-34.133h-12.8L212.148,16.067z M254.815,471.747c-3.121-12.93-5.302-25.86-6.681-38.79l13.073,3.268
			C259.818,448.267,257.725,460.109,254.815,471.747z M262.689,419.315l-15.948-3.987c-0.292-5.656-0.44-11.311-0.453-16.967
			l17.025,4.256C263.236,408.225,263.027,413.79,262.689,419.315z M263.348,385.347l-17.067-4.267v-16.853l17.067,4.267V385.347z
			 M263.348,351.213l-17.067-4.267v-16.853l17.067,4.267V351.213z M263.348,317.08l-17.067-4.267V295.96l17.067,4.267V317.08z
			 M263.348,282.947l-17.067-4.267v-16.853l17.067,4.267V282.947z M263.348,248.813l-17.067-4.267v-16.853l17.067,4.267V248.813z
			 M263.348,214.68l-17.067-4.267V193.56l17.067,4.267V214.68z M263.348,180.547l-17.067-4.267v-16.853l17.067,4.267V180.547z
			 M263.348,146.413l-17.067-4.267v-16.853l17.067,4.267V146.413z M263.348,112.28l-17.067-4.267V91.16l17.067,4.267V112.28z
			 M263.348,77.293l-17.067-4.267V50.2h17.067V77.293z"/>  
</symbol>
<symbol viewBox="0 0 512 512" id="nail">
<path d="M314.88,5.12C314.027,1.707,310.613,0,307.2,0H204.8c-3.413,0-6.827,1.707-7.68,5.12
			c-1.707,3.413-0.853,6.827,1.707,9.387c20.48,20.48,31.573,47.787,31.573,76.8v307.2c0,36.693,5.973,72.533,17.92,107.52
			c0.853,3.413,4.267,5.973,7.68,5.973s6.827-2.56,8.533-5.973C275.627,471.04,281.6,435.2,281.6,398.507v-307.2
			c0-29.013,11.093-56.32,31.573-76.8C315.733,11.947,316.587,8.533,314.88,5.12z M264.533,91.307v307.2
			c0,25.6-2.56,50.347-8.533,74.24c-5.973-24.747-8.533-49.493-8.533-74.24v-307.2c0-27.307-8.533-52.907-23.893-74.24h64.853
			C273.067,38.4,264.533,64,264.533,91.307z"/>  
</symbol>
<symbol viewBox="0 0 256 256" id="nut">
<path d="M217.90381,70.2207l-84-47.47754a12.06082,12.06082,0,0,0-11.80957-.00048l-84,47.47851A12.01793,12.01793,0,0,0,31.999,80.66748v94.665a12.0193,12.0193,0,0,0,6.09522,10.44678l84,47.47754a12.06167,12.06167,0,0,0,11.80957.00048l84-47.47851a12.01794,12.01794,0,0,0,6.09521-10.44629v-94.665A12.01931,12.01931,0,0,0,217.90381,70.2207ZM215.999,175.33252a4.005,4.005,0,0,1-2.03173,3.48193L129.9668,226.293a4.01854,4.01854,0,0,1-3.936-.00049L42.03125,178.81494a4.0058,4.0058,0,0,1-2.03223-3.48242v-94.665a4.005,4.005,0,0,1,2.03174-3.48193L126.03125,29.707a4.01851,4.01851,0,0,1,3.936.00049L213.9668,77.18506a4.00581,4.00581,0,0,1,2.03222,3.48242ZM127.999,88a40,40,0,1,0,40,40A40.04521,40.04521,0,0,0,127.999,88Zm0,72a32,32,0,1,1,32-32A32.036,32.036,0,0,1,127.999,160Z"/>
</symbol>
<symbol viewBox="0 0 62.381 62.38" id="catalog">
<path d="M60.265,0.289H30.401c-1.17,0-2.119,0.949-2.119,2.12v14.738c0,1.17,0.949,2.119,2.119,2.119h4.281v37.053
			c0,1.023,0.729,1.901,1.738,2.086l8.53,1.553c0.125,0.021,0.253,0.031,0.38,0.031s0.256-0.012,0.381-0.031l8.53-1.553
			c1.011-0.185,1.741-1.062,1.741-2.086V19.266h4.278c1.17,0,2.119-0.949,2.119-2.119V2.408C62.386,1.237,61.437,0.289,60.265,0.289
			z M34.683,15.026h-2.161V4.528h2.161V15.026z M45.336,55.715l-6.414-1.166v-5.208l11.641,5.424L45.336,55.715z M51.747,50.64
			l-12.825-5.975v-2.77l12.825,5.977V50.64z M51.747,43.195l-12.825-5.978v-3.146l12.825,5.979V43.195z M51.747,35.376L38.922,29.4
			v-3.887l12.825,5.977V35.376z M51.747,26.813l-12.825-5.976v-1.571h12.825V26.813z M58.147,15.026L58.147,15.026h-4.281H38.922
			V4.528h19.227L58.147,15.026L58.147,15.026z"/>
		<path d="M25.818,33.667c-0.38-0.655-1.079-1.061-1.836-1.061H9.407c-0.758,0-1.457,0.402-1.836,1.061L0.284,46.291
			c-0.379,0.656-0.379,1.465,0,2.12l7.287,12.622c0.379,0.656,1.078,1.06,1.836,1.06h14.576c0.757,0,1.457-0.403,1.835-1.06
			l7.288-12.622c0.379-0.655,0.379-1.464,0-2.12L25.818,33.667z M22.759,57.853H10.631L4.567,47.351l6.063-10.504h12.128
			l6.065,10.504L22.759,57.853z"/>
		<path d="M16.694,39.845c-4.347,0-7.883,3.536-7.883,7.885c0,4.35,3.536,7.883,7.883,7.883c4.348,0,7.885-3.533,7.885-7.883
			C24.579,43.381,21.042,39.845,16.694,39.845z M16.694,51.374c-2.01,0-3.645-1.636-3.645-3.646c0-2.012,1.635-3.646,3.645-3.646
			c2.01,0,3.645,1.636,3.645,3.646C20.339,49.738,18.704,51.374,16.694,51.374z"/>
</symbol>
<symbol viewBox="0 0 18 18" id="search1">
<path d="M8.5 2C4.9 2 2 4.9 2 8.5S4.9 15 8.5 15 15 12.1 15 8.5 12.1 2 8.5 2zm9.2 15.7c-.4.4-1.1.4-1.5 0l-2.5-2.5c-1.4 1.1-3.2 1.8-5.2 1.8C3.8 17 0 13.2 0 8.5S3.8 0 8.5 0 17 3.8 17 8.5c0 2-.7 3.8-1.8 5.2l2.5 2.5c.4.4.4 1.1 0 1.5z"/>
</symbol>
<symbol viewBox="0 0 487.95 487.95" id="search">
<path d="M481.8,453l-140-140.1c27.6-33.1,44.2-75.4,44.2-121.6C386,85.9,299.5,0.2,193.1,0.2S0,86,0,191.4s86.5,191.1,192.9,191.1
			c45.2,0,86.8-15.5,119.8-41.4l140.5,140.5c8.2,8.2,20.4,8.2,28.6,0C490,473.4,490,461.2,481.8,453z M41,191.4
			c0-82.8,68.2-150.1,151.9-150.1s151.9,67.3,151.9,150.1s-68.2,150.1-151.9,150.1S41,274.1,41,191.4z"/></symbol>
<symbol viewBox="0 0 21 16" id="email">
<path d="M17.7 5.6l-3.2 2.7 2.2 2.1c.3.3.4.9 0 1.3-.2.2-.4.3-.6.3-.2 0-.4-.1-.6-.2l-2.3-2.2-2.1 2c-.2.2-.4.2-.6.2-.2 0-.4-.1-.6-.2l-2.1-2-2.4 2.2c-.1.1-.3.2-.5.2s-.5-.1-.6-.3c-.3-.4-.3-.9 0-1.3l2.3-2.1-3.3-2.7c-.3-.3-.4-.9-.1-1.3.3-.3.9-.4 1.2 0l3.9 3.3c.1 0 .1.1.1.1l2 1.9 6-5.4c.4-.3.9-.3 1.2.1.5.4.4 1 .1 1.3zM19 4c0-1.2-.8-2-2-2H4c-1.2 0-2 .8-2 2v8c0 1.2.8 2 2 2h13c1.2 0 2-.8 2-2V4zm-1.9 12H3.9C1.7 16 0 14.2 0 12V4c0-2.2 1.7-4 3.9-4h13.2C19.3 0 21 1.8 21 4v8c0 2.2-1.7 4-3.9 4z"/>
</symbol>
<symbol viewBox="0 0 28 28" id="phone">
<path d="M7.92072596,2.64472005 L9.58060919,2.14438844 C11.1435675,1.67327249 12.8134781,2.43464008 13.4828053,3.92352899 L14.5160823,6.22200834 C15.0865915,7.491081 14.7859439,8.98254111 13.7683291,9.93148073 L11.9633958,11.6146057 C11.9410906,11.6354021 11.9227774,11.6601187 11.9093651,11.6875342 C11.720585,12.0734103 12.0066606,13.1043886 12.9061418,14.6623357 C13.9199541,16.4183102 14.7035571,17.1131712 15.0654726,17.005305 L17.4348517,16.2809111 C18.765101,15.8742119 20.2066891,16.3591908 21.0206203,17.4872349 L22.4880851,19.5210248 C23.440761,20.8413581 23.2694403,22.6628821 22.0872853,23.782427 L20.8252038,24.9776653 C19.9337363,25.8219337 18.6854328,26.1763171 17.4833291,25.9264007 C13.966189,25.1951903 10.8150019,22.3628582 8.00336279,17.4929565 C5.18895293,12.6182556 4.31270988,8.46966127 5.44310245,5.05625686 C5.82703045,3.89692852 6.75144427,2.9971717 7.92072596,2.64472005 Z M8.35362603,4.08089467 C7.65205693,4.29236569 7.09740832,4.83222008 6.86705161,5.52781682 C5.89305385,8.46896164 6.6820141,12.2043134 9.30240089,16.7429565 C11.9202871,21.2772684 14.7578382,23.8276999 17.7886493,24.4578029 C18.5099109,24.6077526 19.2588899,24.3951235 19.7937719,23.888561 L21.0558584,22.6933179 C21.6924034,22.0904861 21.784653,21.1096654 21.2716737,20.3987168 L19.8042088,18.3649269 C19.3659382,17.7575185 18.5896985,17.496376 17.8734103,17.7153679 L15.4990066,18.4412788 C14.1848357,18.833027 12.9496858,17.7377562 11.6071037,15.4123357 C10.4705242,13.4437223 10.075962,12.0217729 10.5619671,11.0283539 C10.6558865,10.8363778 10.7841758,10.6632305 10.9404443,10.5175321 L12.7453325,8.83444937 C13.2932789,8.32348189 13.455166,7.52038798 13.1479688,6.83704116 L12.1146918,4.53856182 C11.7542848,3.7368524 10.8551022,3.32688524 10.0135093,3.58056306 L8.35362603,4.08089467 Z" id="🎨-Color"></path>
</symbol>
<symbol viewBox="0 0 512 512" id="next1">
<path d="M441.773,240.915L207.106,6.248C203.106,2.248,197.679,0,192.021,0H85.355C66.349,0,56.831,22.979,70.27,36.418
			L289.852,256L70.27,475.582C56.831,489.021,66.349,512,85.355,512h106.667c5.658,0,11.084-2.248,15.085-6.248l234.667-234.667
			C450.104,262.754,450.104,249.246,441.773,240.915z M183.185,469.333h-46.327l198.248-198.248c8.331-8.331,8.331-21.839,0-30.17
			L136.858,42.667h46.327L396.518,256L183.185,469.333z"/>
</symbol>
<symbol viewBox="0 0 512 512" id="prev">
<path d="M222.149,256L441.73,36.418C455.169,22.979,445.651,0,426.645,0H319.979c-5.658,0-11.084,2.248-15.085,6.248
			L70.227,240.915c-8.331,8.331-8.331,21.839,0,30.17l234.667,234.667c4.001,4.001,9.427,6.248,15.085,6.248h106.667
			c19.006,0,28.524-22.979,15.085-36.418L222.149,256z M328.815,469.333L115.482,256L328.815,42.667h46.327L176.894,240.915
			c-8.331,8.331-8.331,21.839,0,30.17l198.248,198.248H328.815z"/>
</symbol>
</svg>